<?xml version="1.0" encoding="UTF-8" standalone="no" ?>
<!DOCTYPE svg PUBLIC "-//W3C//DTD SVG 1.1//EN" "http://www.w3.org/Graphics/SVG/1.1/DTD/svg11.dtd">
<svg xmlns="http://www.w3.org/2000/svg" xmlns:xlink="http://www.w3.org/1999/xlink" version="1.1" width="850" height="400" viewBox="0 0 850 400" xml:space="preserve">
<desc>Created with Fabric.js 5.3.0</desc>
<defs>
</defs>
<g transform="matrix(1 0 0 1 425 200)" id="2_l2tXqcikUqXjAXXBfVN"  >
<g style=""   >
		<g transform="matrix(1 0 0 1 0 0)" id="aDBmMoXlEXSguojdL5hGH"  >
<path style="stroke: none; stroke-width: 1; stroke-dasharray: none; stroke-linecap: butt; stroke-dashoffset: 0; stroke-linejoin: miter; stroke-miterlimit: 4; fill: rgb(0,50,60); fill-rule: nonzero; opacity: 1;"  transform=" translate(-425, -200)" d="M 0 400 L 0 0 L 850 0 L 850 400 z" stroke-linecap="round" />
</g>
		<g transform="matrix(1 0 0 1 -250.1015 104.169)" id="OzjX9yEOWe45lu2Njq5Fy"  >
<path style="stroke: none; stroke-width: 1; stroke-dasharray: none; stroke-linecap: butt; stroke-dashoffset: 0; stroke-linejoin: miter; stroke-miterlimit: 4; fill: rgb(227,255,43); fill-rule: nonzero; opacity: 1;"  transform=" translate(-174.8985, -304.169)" d="M 59.321 340 L 59.321 267.273 L 74.6974 267.273 L 74.6974 297.28 L 105.912 297.28 L 105.912 267.273 L 121.253 267.273 L 121.253 340 L 105.912 340 L 105.912 309.957 L 74.6974 309.957 L 74.6974 340 L 59.321 340 Z M 156.274 341.065 C 150.663 341.065 145.834 339.929 141.786 337.656 C 137.761 335.36 134.66 332.116 132.482 327.926 C 130.304 323.712 129.215 318.729 129.215 312.976 C 129.215 307.365 130.304 302.441 132.482 298.203 C 134.66 293.965 137.725 290.663 141.679 288.295 C 145.656 285.928 150.32 284.744 155.671 284.744 C 159.269 284.744 162.619 285.324 165.72 286.484 C 168.845 287.621 171.568 289.337 173.888 291.634 C 176.232 293.93 178.055 296.818 179.357 300.298 C 180.659 303.755 181.31 307.803 181.31 312.443 L 181.31 316.598 L 135.252 316.598 L 135.252 307.223 L 167.07 307.223 C 167.07 305.045 166.596 303.116 165.649 301.435 C 164.702 299.754 163.388 298.44 161.707 297.493 C 160.05 296.522 158.121 296.037 155.919 296.037 C 153.623 296.037 151.587 296.57 149.811 297.635 C 148.059 298.677 146.686 300.085 145.692 301.861 C 144.698 303.613 144.189 305.566 144.165 307.72 L 144.165 316.634 C 144.165 319.332 144.662 321.664 145.656 323.629 C 146.674 325.594 148.107 327.109 149.953 328.175 C 151.8 329.24 153.99 329.773 156.523 329.773 C 158.204 329.773 159.743 329.536 161.139 329.062 C 162.536 328.589 163.732 327.879 164.726 326.932 C 165.72 325.985 166.478 324.825 166.999 323.452 L 180.99 324.375 C 180.28 327.737 178.824 330.672 176.622 333.182 C 174.444 335.668 171.627 337.609 168.171 339.006 C 164.738 340.379 160.772 341.065 156.274 341.065 Z M 204.08 267.273 L 204.08 340 L 188.952 340 L 188.952 267.273 L 204.08 267.273 Z M 229.096 267.273 L 229.096 340 L 213.968 340 L 213.968 267.273 L 229.096 267.273 Z M 263.629 341.065 C 258.113 341.065 253.343 339.893 249.318 337.55 C 245.317 335.182 242.227 331.892 240.049 327.678 C 237.871 323.44 236.782 318.527 236.782 312.94 C 236.782 307.306 237.871 302.382 240.049 298.168 C 242.227 293.93 245.317 290.639 249.318 288.295 C 253.343 285.928 258.113 284.744 263.629 284.744 C 269.145 284.744 273.904 285.928 277.905 288.295 C 281.929 290.639 285.031 293.93 287.209 298.168 C 289.387 302.382 290.476 307.306 290.476 312.94 C 290.476 318.527 289.387 323.44 287.209 327.678 C 285.031 331.892 281.929 335.182 277.905 337.55 C 273.904 339.893 269.145 341.065 263.629 341.065 Z M 263.7 329.347 C 266.21 329.347 268.305 328.636 269.986 327.216 C 271.666 325.772 272.933 323.807 273.785 321.321 C 274.661 318.835 275.099 316.006 275.099 312.834 C 275.099 309.661 274.661 306.832 273.785 304.347 C 272.933 301.861 271.666 299.896 269.986 298.452 C 268.305 297.008 266.21 296.286 263.7 296.286 C 261.167 296.286 259.036 297.008 257.308 298.452 C 255.603 299.896 254.313 301.861 253.437 304.347 C 252.585 306.832 252.159 309.661 252.159 312.834 C 252.159 316.006 252.585 318.835 253.437 321.321 C 254.313 323.807 255.603 325.772 257.308 327.216 C 259.036 328.636 261.167 329.347 263.7 329.347 Z" stroke-linecap="round" />
</g>
		<g transform="matrix(1 0 0 1 -118.0755 132.436)" id="UhnswQC0A_UsrCo-mhzgJ"  >
<path style="stroke: none; stroke-width: 1; stroke-dasharray: none; stroke-linecap: butt; stroke-dashoffset: 0; stroke-linejoin: miter; stroke-miterlimit: 4; fill: rgb(92,218,92); fill-rule: nonzero; opacity: 1;"  transform=" translate(-306.9245, -332.436)" d="M 306.925 340.923 C 304.581 340.923 302.569 340.095 300.888 338.438 C 299.23 336.757 298.402 334.744 298.402 332.401 C 298.402 330.08 299.23 328.092 300.888 326.435 C 302.569 324.777 304.581 323.949 306.925 323.949 C 309.197 323.949 311.186 324.777 312.89 326.435 C 314.595 328.092 315.447 330.08 315.447 332.401 C 315.447 333.963 315.045 335.395 314.24 336.697 C 313.459 337.976 312.429 339.006 311.15 339.787 C 309.872 340.545 308.463 340.923 306.925 340.923 Z" stroke-linecap="round" />
</g>
</g>
</g>
</svg>